<?xml version="1.0" encoding="UTF-8"?>
<svg version="1.1" xmlns="http://www.w3.org/2000/svg" width="206" height="67">
<path d="M0 0 C0.77214844 -0.00386719 1.54429688 -0.00773438 2.33984375 -0.01171875 C5.64503737 -0.00599051 8.34377498 0.07292499 11.5 1.125 C11.995 7.065 11.995 7.065 12.5 13.125 C11.015 12.774375 9.53 12.42375 8 12.0625 C3.0545972 11.09583486 -0.60081393 10.85796912 -5.5 12.125 C-8.36516793 14.34550515 -9.32684377 15.91290641 -9.83984375 19.50390625 C-9.98390767 23.37058182 -9.73348971 26.46573493 -8.4375 30.125 C-5.77794002 32.87035223 -3.18192219 33.36082747 0.5 34.125 C0.5 31.815 0.5 29.505 0.5 27.125 C-2.14 27.125 -4.78 27.125 -7.5 27.125 C-7.5 24.155 -7.5 21.185 -7.5 18.125 C-3.85418313 18.09612488 -0.20839537 18.07824415 3.4375 18.0625 C4.47841797 18.05412109 5.51933594 18.04574219 6.59179688 18.03710938 C7.58115234 18.03388672 8.57050781 18.03066406 9.58984375 18.02734375 C10.96450806 18.01948853 10.96450806 18.01948853 12.36694336 18.01147461 C14.5 18.125 14.5 18.125 15.5 19.125 C15.84067242 26.50957563 15.66803601 33.82477492 14.5 41.125 C6.3343577 45.20782115 -3.51956407 45.57108902 -12.359375 43.43359375 C-18.47575226 40.98088542 -21.91571031 37.36902175 -24.8125 31.4375 C-26.47875854 23.40916341 -26.23704276 16.62514428 -22.19921875 9.359375 C-16.43647803 1.78170215 -9.07199897 -0.04543572 0 0 Z " fill="#64A5F6" transform="translate(122.5,8.875)"/>
<path d="M0 0 C5.61 0 11.22 0 17 0 C18.26457031 3.81111328 18.26457031 3.81111328 19.5546875 7.69921875 C20.37512401 10.16833419 21.19608184 12.63727571 22.01708984 15.10620117 C22.58599455 16.81793409 23.15435983 18.52984638 23.72216797 20.24194336 C24.53991123 22.7073462 25.35961256 25.17209067 26.1796875 27.63671875 C26.43185028 28.39836838 26.68401306 29.16001801 26.94381714 29.94474792 C28.18882281 33.6801566 29.48478455 37.36285419 31 41 C30 42 30 42 26.62109375 42.09765625 C25.22652923 42.09098369 23.83198257 42.07902532 22.4375 42.0625 C21.72658203 42.05798828 21.01566406 42.05347656 20.28320312 42.04882812 C18.52209987 42.03700864 16.76103964 42.01907263 15 42 C14.67 39.36 14.34 36.72 14 34 C10.04 34 6.08 34 2 34 C1.7834375 35.7015625 1.7834375 35.7015625 1.5625 37.4375 C1 41 1 41 0 42 C-2.53049402 42.07313567 -5.03304837 42.09247527 -7.5625 42.0625 C-8.62887695 42.05573242 -8.62887695 42.05573242 -9.71679688 42.04882812 C-11.47790013 42.03700864 -13.23896036 42.01907263 -15 42 C-13.34945954 37.14243306 -11.69528703 32.28612352 -10.0378418 27.4309082 C-9.47533551 25.78150348 -8.91379642 24.13176856 -8.35327148 22.48168945 C-7.54409169 20.10018341 -6.7313585 17.71991471 -5.91796875 15.33984375 C-5.54746651 14.24566383 -5.54746651 14.24566383 -5.16947937 13.12937927 C-4.92945694 12.42918167 -4.68943451 11.72898407 -4.44213867 11.00756836 C-4.2356218 10.4013414 -4.02910492 9.79511444 -3.81632996 9.17051697 C-2.65078418 6.07147978 -1.30425534 3.04326246 0 0 Z M7 13 C6.67 14.2375 6.34 15.475 6 16.75 C5.814375 17.44609375 5.62875 18.1421875 5.4375 18.859375 C4.86650651 21.28901861 4.86650651 21.28901861 5 25 C6.98 25 8.96 25 11 25 C10.01 21.04 9.02 17.08 8 13 C7.67 13 7.34 13 7 13 Z " fill="#62A4F5" transform="translate(32,10)"/>
<path d="M0 0 C0.72445312 -0.00386719 1.44890625 -0.00773438 2.1953125 -0.01171875 C5.39282879 -0.00581927 7.94582607 0.10694202 11 1.125 C11 4.755 11 8.385 11 12.125 C10.15695313 11.96902344 9.31390625 11.81304687 8.4453125 11.65234375 C7.34960938 11.45769531 6.25390625 11.26304688 5.125 11.0625 C4.03445312 10.86527344 2.94390625 10.66804688 1.8203125 10.46484375 C-0.94653283 9.86868101 -0.94653283 9.86868101 -3 11.125 C-3.33 12.115 -3.66 13.105 -4 14.125 C-3.195625 14.33125 -2.39125 14.5375 -1.5625 14.75 C3.46603008 16.69083617 9.24278532 19.38352266 12.234375 24.05078125 C13.6122674 27.78374485 13.7552852 31.22378773 13 35.125 C10.35327732 39.81651512 7.17681484 42.58001 2 44.125 C-1.59375 44.390625 -1.59375 44.390625 -5.5 44.375 C-7.43359375 44.38273437 -7.43359375 44.38273437 -9.40625 44.390625 C-13 44.125 -13 44.125 -18 42.125 C-18 38.165 -18 34.205 -18 30.125 C-15.525 31.115 -15.525 31.115 -13 32.125 C-11.40464778 32.53588563 -9.80008636 32.91304166 -8.1875 33.25 C-7.39730469 33.41757812 -6.60710937 33.58515625 -5.79296875 33.7578125 C-5.20128906 33.87898438 -4.60960937 34.00015625 -4 34.125 C-3.67 32.475 -3.34 30.825 -3 29.125 C-3.58007812 28.97804688 -4.16015625 28.83109375 -4.7578125 28.6796875 C-10.76325104 26.95535366 -13.99050438 24.93639474 -18 20.125 C-19.20643566 16.50569302 -19.32268559 13.93268995 -19 10.125 C-14.38044959 1.54583495 -9.31751091 -0.0497376 0 0 Z " fill="#62A5F6" transform="translate(181,8.875)"/>
<path d="M0 0 C9.24 0 18.48 0 28 0 C28 2.97 28 5.94 28 9 C27 10 27 10 24.05859375 10.09765625 C22.26615234 10.08025391 22.26615234 10.08025391 20.4375 10.0625 C18.64119141 10.04896484 18.64119141 10.04896484 16.80859375 10.03515625 C15.88175781 10.02355469 14.95492187 10.01195312 14 10 C14 11.98 14 13.96 14 16 C18.29 16 22.58 16 27 16 C27 19.3 27 22.6 27 26 C22.71 26 18.42 26 14 26 C14 27.98 14 29.96 14 32 C18.95 32 23.9 32 29 32 C28.67 35.3 28.34 38.6 28 42 C18.76 42 9.52 42 0 42 C0 28.14 0 14.28 0 0 Z " fill="#62A5F8" transform="translate(66,10)"/>
<path d="M0 0 C4.62 0 9.24 0 14 0 C14 13.86 14 27.72 14 42 C9.38 42 4.76 42 0 42 C0 28.14 0 14.28 0 0 Z " fill="#65A4F1" transform="translate(143,10)"/>
<path d="M0 0 C6.27 0 12.54 0 19 0 C19.07419234 7.1224651 19.10390686 13.9625938 18 21 C15.69 21 13.38 21 11 21 C10.29826347 16.61414671 9.89165625 12.44209357 10 8 C9.36191406 7.86722656 8.72382812 7.73445313 8.06640625 7.59765625 C7.24011719 7.42105469 6.41382812 7.24445312 5.5625 7.0625 C4.73878906 6.88847656 3.91507812 6.71445312 3.06640625 6.53515625 C1 6 1 6 0 5 C0 3.35 0 1.7 0 0 Z " fill="#60A5F8" transform="translate(117,29)"/>
<path d="M0 0 C9.24 0 18.48 0 28 0 C28 2.97 28 5.94 28 9 C26.35 9.33 24.7 9.66 23 10 C23.165 8.88625 23.33 7.7725 23.5 6.625 C24.0455458 3.27967967 24.0455458 3.27967967 24 1 C16.41 1 8.82 1 1 1 C1 14.2 1 27.4 1 41 C9.58 41 18.16 41 27 41 C27 38.69 27 36.38 27 34 C22.71 33.67 18.42 33.34 14 33 C14 32.67 14 32.34 14 32 C18.95 32 23.9 32 29 32 C28.67 35.3 28.34 38.6 28 42 C18.76 42 9.52 42 0 42 C0 28.14 0 14.28 0 0 Z " fill="#70A2E1" transform="translate(66,10)"/>
<path d="M0 0 C3.64581687 -0.02887512 7.29160463 -0.04675585 10.9375 -0.0625 C12.49887695 -0.07506836 12.49887695 -0.07506836 14.09179688 -0.08789062 C15.57583008 -0.09272461 15.57583008 -0.09272461 17.08984375 -0.09765625 C18.46450806 -0.10551147 18.46450806 -0.10551147 19.86694336 -0.11352539 C22 0 22 0 23 1 C23.34067242 8.38457563 23.16803601 15.69977492 22 23 C20.68 23.33 19.36 23.66 18 24 C18.66 23.67 19.32 23.34 20 23 C20.33 16.07 20.66 9.14 21 2 C14.73 2 8.46 2 2 2 C2.33 3.65 2.66 5.3 3 7 C4.65 7.33 6.3 7.66 8 8 C8 8.33 8 8.66 8 9 C5.36 9 2.72 9 0 9 C0 6.03 0 3.06 0 0 Z " fill="#70A2E4" transform="translate(115,27)"/>
<path d="M0 0 C2.475 0.99 2.475 0.99 5 2 C7.66201747 3.01277453 10.33129263 4.00488878 13 5 C13 5.33 13 5.66 13 6 C10.03 6.66 7.06 7.32 4 8 C3.67 6.68 3.34 5.36 3 4 C3 6.31 3 8.62 3 11 C11.95816859 12.79163372 19.87897496 12.54777402 28 8 C24.19485424 12.01082932 22.25274265 13.88865755 16.6015625 14.16796875 C14.63316406 14.17763672 14.63316406 14.17763672 12.625 14.1875 C11.31789062 14.20167969 10.01078125 14.21585938 8.6640625 14.23046875 C5 14 5 14 0 12 C0 8.04 0 4.08 0 0 Z " fill="#75A7E3" transform="translate(163,39)"/>
<path d="M0 0 C0.72445312 -0.00386719 1.44890625 -0.00773438 2.1953125 -0.01171875 C5.39282879 -0.00581927 7.94582607 0.10694202 11 1.125 C11 4.755 11 8.385 11 12.125 C10.34 11.795 9.68 11.465 9 11.125 C9.020625 9.990625 9.04125 8.85625 9.0625 7.6875 C9.41577477 4.30924326 9.41577477 4.30924326 8 3.125 C5.59060484 2.99725155 3.22250324 2.93978436 0.8125 2.9375 C-0.50105469 2.92332031 -1.81460938 2.90914062 -3.16796875 2.89453125 C-7.59658802 3.16088042 -11.42201343 3.65972675 -14.75 6.75 C-16.51803364 10.10926391 -17.19635364 13.41586293 -18 17.125 C-18.33 17.125 -18.66 17.125 -19 17.125 C-19.45760607 11.4049241 -18.63848132 8.57203273 -15 4.125 C-10.3323415 0.02311829 -5.98536748 -0.03195036 0 0 Z " fill="#71A1E0" transform="translate(181,8.875)"/>
<path d="M0 0 C0.77214844 0.00064453 1.54429688 0.00128906 2.33984375 0.00195312 C5.63669339 0.02766512 8.35341999 0.13864 11.5 1.1875 C11.83 5.1475 12.16 9.1075 12.5 13.1875 C9.2 12.5275 5.9 11.8675 2.5 11.1875 C2.5 10.8575 2.5 10.5275 2.5 10.1875 C5.14 9.5275 7.78 8.8675 10.5 8.1875 C10.5 6.2075 10.5 4.2275 10.5 2.1875 C3.24 2.1875 -4.02 2.1875 -11.5 2.1875 C-7.64422068 -0.38301954 -4.46094577 -0.07074956 0 0 Z " fill="#70A2DC" transform="translate(122.5,8.8125)"/>
<path d="M0 0 C0.66 0 1.32 0 2 0 C2.5321441 2.08047297 3.05031786 4.16452293 3.5625 6.25 C3.85253906 7.41015625 4.14257812 8.5703125 4.44140625 9.765625 C4.95179964 12.72090983 5.02996165 14.24434101 4 17 C1.69 17 -0.62 17 -3 17 C-3.66 13.7 -4.32 10.4 -5 7 C-4.34 6.67 -3.68 6.34 -3 6 C-2.67 5.01 -2.34 4.02 -2 3 C-1.34 3 -0.68 3 0 3 C0 2.01 0 1.02 0 0 Z M0 4 C-0.33 5.2375 -0.66 6.475 -1 7.75 C-1.185625 8.44609375 -1.37125 9.1421875 -1.5625 9.859375 C-2.13349349 12.28901861 -2.13349349 12.28901861 -2 16 C-0.02 16 1.96 16 4 16 C3.01 12.04 2.02 8.08 1 4 C0.67 4 0.34 4 0 4 Z " fill="#679CE1" transform="translate(39,19)"/>
<path d="M0 0 C1.66832577 2.50248865 2.62381674 4.41149187 3.625 7.1875 C3.88539062 7.90292969 4.14578125 8.61835937 4.4140625 9.35546875 C4.60742188 9.89816406 4.80078125 10.44085938 5 11 C4 12 4 12 0.62109375 12.09765625 C-0.77347077 12.09098369 -2.16801743 12.07902532 -3.5625 12.0625 C-4.62887695 12.05573242 -4.62887695 12.05573242 -5.71679688 12.04882812 C-7.47790013 12.03700864 -9.23896036 12.01907263 -11 12 C-10.67 10.68 -10.34 9.36 -10 8 C-10 8.99 -10 9.98 -10 11 C-6.7 11 -3.4 11 0 11 C-0.185625 9.741875 -0.37125 8.48375 -0.5625 7.1875 C-1.00732761 4.17255732 -0.99843846 2.99531539 0 0 Z " fill="#6EA6EC" transform="translate(58,40)"/>
<path d="M0 0 C1.24549946 2.49099891 0.99960671 4.04207737 0.875 6.8125 C0.83197884 11.07159507 1.16301043 13.63764199 4 17 C4.99 17.66 5.98 18.32 7 19 C4.69 19.33 2.38 19.66 0 20 C-1.24591555 16.15348294 -1.14781806 12.30946388 -1.125 8.3125 C-1.12886719 7.62349609 -1.13273437 6.93449219 -1.13671875 6.22460938 C-1.12669335 1.12669335 -1.12669335 1.12669335 0 0 Z " fill="#6CA0E2" transform="translate(112,24)"/>
<path d="M0 0 C0.33 0 0.66 0 1 0 C1.6875 2.6875 1.6875 2.6875 2 6 C0.515 8.475 0.515 8.475 -1 11 C2.96 11 6.92 11 11 11 C11 11.33 11 11.66 11 12 C6.05 12 1.1 12 -4 12 C-2.68 8.04 -1.36 4.08 0 0 Z " fill="#72A2E1" transform="translate(21,40)"/>
<path d="M0 0 C2.49361571 1.20381448 4.68143083 2.45428722 7 4 C7.1875 6.625 7.1875 6.625 7 9 C5.68 9.33 4.36 9.66 3 10 C3.33 8.02 3.66 6.04 4 4 C1.69 3.34 -0.62 2.68 -3 2 C-2.01 1.34 -1.02 0.68 0 0 Z " fill="#70A6E9" transform="translate(174,34)"/>
<path d="M0 0 C1.32 0.66 2.64 1.32 4 2 C4 3.98 4 5.96 4 8 C2.35 8.33 0.7 8.66 -1 9 C-0.7525 7.329375 -0.7525 7.329375 -0.5 5.625 C0.0455458 2.27967967 0.0455458 2.27967967 0 0 Z " fill="#71ABF1" transform="translate(90,11)"/>
<path d="M0 0 C0.66 0.33 1.32 0.66 2 1 C1.01 1.33 0.02 1.66 -1 2 C-1.309375 2.66 -1.61875 3.32 -1.9375 4 C-3 6 -3 6 -5.125 6.75 C-6.053125 6.87375 -6.053125 6.87375 -7 7 C-5.55609075 3.19333016 -3.65047197 1.73397418 0 0 Z " fill="#71A5EB" transform="translate(109,11)"/>
<path d="M0 0 C-2.93836239 1.52359531 -5.92246295 2.78518275 -9 4 C-9.99 4.495 -9.99 4.495 -11 5 C-10.65660347 2.42452602 -10.39993284 1.31105887 -8.3125 -0.3125 C-5.27796869 -1.21465796 -3.05119529 -0.69345348 0 0 Z " fill="#72A4E8" transform="translate(125,18)"/>
<path d="M0 0 C0.33 0.66 0.66 1.32 1 2 C1.99 2 2.98 2 4 2 C4.33 2.99 4.66 3.98 5 5 C6.49985609 6.66710346 6.49985609 6.66710346 8 8 C5 8 5 8 2.3125 5.6875 C0 3 0 3 0 0 Z " fill="#75A9E4" transform="translate(163,26)"/>
<path d="M0 0 C2.31 0.33 4.62 0.66 7 1 C7 1.33 7 1.66 7 2 C4.03 2.66 1.06 3.32 -2 4 C-1.34 2.68 -0.68 1.36 0 0 Z " fill="#6EA2EC" transform="translate(169,43)"/>
<path d="M0 0 C1.66832577 2.50248865 2.62381674 4.41149187 3.625 7.1875 C4.01558594 8.26064453 4.01558594 8.26064453 4.4140625 9.35546875 C4.60742188 9.89816406 4.80078125 10.44085938 5 11 C4.01 11.33 3.02 11.66 2 12 C0.86235649 7.73383684 0 4.43513689 0 0 Z " fill="#79A0DC" transform="translate(58,40)"/>
<path d="M0 0 C0 1.65 0 3.3 0 5 C-2.64 4.34 -5.28 3.68 -8 3 C-8 2.67 -8 2.34 -8 2 C-2.25 0 -2.25 0 0 0 Z " fill="#6CA4EB" transform="translate(133,17)"/>
</svg>
